<?xml version="1.0" encoding="utf-8"?>
<!-- Generator: Adobe Illustrator 15.0.0, SVG Export Plug-In . SVG Version: 6.00 Build 0)  -->
<!DOCTYPE svg PUBLIC "-//W3C//DTD SVG 1.1//EN" "http://www.w3.org/Graphics/SVG/1.1/DTD/svg11.dtd">
<svg version="1.1" id="Layer_1" xmlns="http://www.w3.org/2000/svg" xmlns:xlink="http://www.w3.org/1999/xlink" x="0px" y="0px"
	 width="494.3px" height="715.765px" viewBox="1127.527 127.048 494.3 715.765"
	 enable-background="new 1127.527 127.048 494.3 715.765" xml:space="preserve">
<g id="Layer_1_1_">
	<g id="Layer_14">
	</g>
	<g id="Layer_10">
		<path fill="#9CFFAF" d="M1621.827,595.659c0,136.504-110.655,247.154-247.139,247.154c-136.519,0-247.161-110.647-247.161-247.154
			c0-136.495,110.644-247.146,247.161-247.146C1511.167,348.517,1621.827,459.164,1621.827,595.659z"/>
	</g>
	<g id="Layer_7">
		<polygon fill="#5F6472" points="1512.539,441.73 1445.641,441.73 1445.641,325.914 1512.539,272.951 		"/>
		<rect x="1517.901" y="245.733" fill="#A4A4A5" width="62.523" height="355.081"/>
		<polygon fill="#858B99" points="1510.883,446.042 1477.439,446.042 1477.098,304.01 1510.883,277.263 		"/>
		<rect x="1567.377" y="205.815" fill="#A4A4A5" width="8.258" height="47.362"/>
		<rect x="1553.604" y="247.664" fill="#D6D6D6" width="24.931" height="355.083"/>
	</g>
	<g id="Layer_11">
		<rect x="1522.137" y="252.249" fill="#F9F4BD" width="53.498" height="12.351"/>
		<rect x="1522.137" y="362.663" fill="#F9F4BD" width="53.498" height="12.346"/>
		<rect x="1522.137" y="272.951" fill="#F9F4BD" width="53.498" height="12.351"/>
		<rect x="1522.137" y="295.864" fill="#F9F4BD" width="53.498" height="12.346"/>
		<rect x="1522.137" y="317.969" fill="#F9F4BD" width="53.498" height="12.346"/>
		<rect x="1522.137" y="340.69" fill="#F9F4BD" width="53.498" height="12.35"/>
		<rect x="1522.137" y="384.659" fill="#F9F4BD" width="53.498" height="12.345"/>
		<rect x="1522.137" y="495.072" fill="#F9F4BD" width="53.498" height="12.349"/>
		<rect x="1522.137" y="405.365" fill="#F9F4BD" width="53.498" height="12.345"/>
		<rect x="1522.137" y="428.275" fill="#F9F4BD" width="53.498" height="12.346"/>
		<rect x="1522.137" y="450.374" fill="#F9F4BD" width="53.498" height="12.35"/>
		<rect x="1522.137" y="473.098" fill="#F9F4BD" width="53.498" height="12.348"/>
		<rect x="1522.137" y="516.968" fill="#F9F4BD" width="53.498" height="12.35"/>
	</g>
	<g id="Layer_9">
		<rect x="1449.736" y="339.316" fill="#EAE58F" width="10.633" height="10.631"/>
		<rect x="1465.674" y="339.316" fill="#EAE58F" width="10.627" height="10.631"/>
		<rect x="1497.807" y="339.316" fill="#F9F4BD" width="10.637" height="10.631"/>
		<rect x="1481.201" y="339.316" fill="#F9F4BD" width="10.627" height="10.631"/>
		<rect x="1449.736" y="357.34" fill="#EAE58F" width="10.633" height="10.632"/>
		<rect x="1465.674" y="357.34" fill="#EAE58F" width="10.627" height="10.632"/>
		<rect x="1497.807" y="357.34" fill="#F9F4BD" width="10.637" height="10.632"/>
		<rect x="1481.201" y="357.34" fill="#F9F4BD" width="10.627" height="10.632"/>
		<rect x="1449.736" y="375.846" fill="#EAE58F" width="10.633" height="10.631"/>
		<rect x="1465.674" y="375.846" fill="#EAE58F" width="10.627" height="10.631"/>
		<rect x="1497.807" y="375.846" fill="#F9F4BD" width="10.637" height="10.631"/>
		<rect x="1481.201" y="375.846" fill="#F9F4BD" width="10.627" height="10.631"/>
		<rect x="1449.736" y="393.521" fill="#EAE58F" width="10.633" height="10.632"/>
		<rect x="1465.674" y="393.521" fill="#EAE58F" width="10.627" height="10.632"/>
		<rect x="1497.807" y="393.521" fill="#F9F4BD" width="10.637" height="10.632"/>
		<rect x="1481.201" y="393.521" fill="#F9F4BD" width="10.627" height="10.632"/>
		<rect x="1449.736" y="411.727" fill="#EAE58F" width="10.633" height="10.632"/>
		<rect x="1465.674" y="411.727" fill="#EAE58F" width="10.627" height="10.632"/>
		<rect x="1497.807" y="411.727" fill="#F9F4BD" width="10.637" height="10.632"/>
		<rect x="1481.201" y="411.727" fill="#F9F4BD" width="10.627" height="10.632"/>
		<rect x="1465.13" y="322.487" fill="#EAE58F" width="10.63" height="10.631"/>
		<rect x="1497.264" y="322.487" fill="#F9F4BD" width="10.638" height="10.631"/>
		<rect x="1480.655" y="322.487" fill="#F9F4BD" width="10.625" height="10.631"/>
		<rect x="1496.974" y="306.496" fill="#F9F4BD" width="10.634" height="10.632"/>
		<rect x="1480.362" y="306.496" fill="#F9F4BD" width="10.634" height="10.632"/>
		<rect x="1496.974" y="291.406" fill="#F9F4BD" width="10.634" height="10.632"/>
		<rect x="1497.807" y="429.133" fill="#F9F4BD" width="10.637" height="10.631"/>
	</g>
	<g id="Layer_8">
		<polygon fill="#F9EADE" points="1414.35,127.048 1395.811,150.666 1389.191,405.526 1439.941,405.526 1432.219,150.666 		"/>
	</g>
	<g id="Layer_4">
		<rect x="1310.307" y="179.7" fill="#555760" width="75.762" height="250.827"/>
	</g>
	<g id="Layer_6">
	</g>
	<g id="Layer_5">
		<rect x="1322.062" y="195.523" fill="#EAE58F" width="17.652" height="17.651"/>
		<rect x="1357.37" y="195.523" fill="#EAE58F" width="17.646" height="17.651"/>
		<rect x="1322.067" y="222.003" fill="#EAE58F" width="17.656" height="17.654"/>
		<rect x="1357.37" y="222.003" fill="#EAE58F" width="17.654" height="17.654"/>
		<rect x="1321.714" y="249.593" fill="#EAE58F" width="17.653" height="17.654"/>
		<rect x="1357.013" y="249.593" fill="#EAE58F" width="17.651" height="17.654"/>
		<rect x="1321.714" y="277.263" fill="#EAE58F" width="17.653" height="17.654"/>
		<rect x="1357.013" y="277.263" fill="#EAE58F" width="17.651" height="17.654"/>
		<rect x="1321.714" y="306.489" fill="#EAE58F" width="17.653" height="17.653"/>
		<rect x="1357.013" y="306.489" fill="#EAE58F" width="17.651" height="17.653"/>
	</g>
	<g id="Layer_3">
		<rect x="1235.644" y="256.941" fill="#797E8E" width="19.86" height="67.669"/>
		<polyline fill="#EBB279" points="1220.563,458.362 1220.563,339.307 1375.324,339.307 1375.324,389.016 		"/>
		<polygon fill="#F44545" points="1297.943,265.035 1172.751,339.307 1422.84,339.307 		"/>
		<path fill="#E6FFFA" d="M1250.538,240.77c2.743,0,4.967,2.222,4.967,4.964c0,2.741-2.224,4.965-4.967,4.965
			c-2.739,0-4.964-2.224-4.964-4.965C1245.574,242.992,1247.797,240.77,1250.538,240.77z"/>
		<circle fill="#D7FFF7" cx="1267.546" cy="235.525" r="7.991"/>
		<circle fill="#E6FFFA" cx="1288.211" cy="224.228" r="12.672"/>
		<circle fill="#E6FFFA" cx="1317.241" cy="210.988" r="16.357"/>
		<polygon fill="#3057B7" points="1277.204,392.314 1275.359,392.314 1241.162,392.314 1241.162,356.271 1259.187,356.271 
			1277.204,356.271 		"/>
		<polygon fill="#5784DD" points="1258.441,357.34 1276.094,357.34 1276.094,390.629 		"/>
		<polygon fill="#F95F5F" points="1414.35,336.825 1297.799,267.518 1297.799,336.825 		"/>
		<g>
			<path fill="#FCE4D0" stroke="#EBB279" stroke-width="0.1" stroke-miterlimit="10" d="M1339.394,377.589v-1.703
				c0,0,0.981-1.135,1.75-1.135c2.734,0-1.098,0,1.914,0c0,0,1.332,0.344,1.377,1.15c0.055,0.794,0.039,1.688,0.039,1.688"/>
			
				<rect x="1334.188" y="380.188" fill="#FCE4D0" stroke="#EBB279" stroke-width="0.1" stroke-miterlimit="10" width="15.763" height="21.015"/>
			
				<rect x="1333.203" y="377.081" fill="#FCE4D0" stroke="#EBB279" stroke-width="0.1" stroke-miterlimit="10" width="17.472" height="4.261"/>
			
				<line fill="none" stroke="#EBB279" stroke-width="0.1" stroke-miterlimit="10" x1="1337.042" y1="383.684" x2="1337.042" y2="399.116"/>
			
				<line fill="none" stroke="#EBB279" stroke-width="0.1" stroke-miterlimit="10" x1="1343.729" y1="383.684" x2="1343.729" y2="399.116"/>
			
				<line fill="none" stroke="#EBB279" stroke-width="0.1" stroke-miterlimit="10" x1="1347.107" y1="383.684" x2="1347.107" y2="399.116"/>
			
				<line fill="none" stroke="#EBB279" stroke-width="0.1" stroke-miterlimit="10" x1="1340.369" y1="383.684" x2="1340.369" y2="399.112"/>
		</g>
		<path fill="#F7D0AD" d="M1375.317,389.005c114.555,0,207.427,92.87,207.427,207.43c0,114.559-92.872,207.426-207.427,207.426
			c-114.563,0-207.434-92.867-207.434-207.426C1167.883,481.875,1260.753,389.005,1375.317,389.005z"/>
	</g>
	<g id="Layer_13">
	</g>
	<g id="Layer_2">
		<circle fill="#12BCCF" cx="1375.324" cy="593.951" r="182.417"/>
	</g>
	<g id="Layer_12">
		<text transform="matrix(1 0 0 1 1209.438 574.3193)" fill="#FFFFFF" font-family="'PoiretOne-Regular'" font-size="120.8254">dWell</text>
		
			<text transform="matrix(1 0 0 1 1209.438 574.3193)" fill="none" stroke="#FFFFFF" stroke-width="0.75" stroke-miterlimit="10" font-family="'PoiretOne-Regular'" font-size="120.8254">dWell</text>
		<text transform="matrix(1 0 0 1 1243.811 719.3052)" fill="#FFFFFF" font-family="'PoiretOne-Regular'" font-size="120.8254">Well</text>
		
			<text transform="matrix(1 0 0 1 1243.811 719.3052)" fill="none" stroke="#FFFFFF" stroke-width="0.75" stroke-miterlimit="10" font-family="'PoiretOne-Regular'" font-size="120.8254">Well</text>
		<g>
			<text transform="matrix(1 0 0 1 1206.4985 575.4199)" fill="#12BCCF" font-family="'PoiretOne-Regular'" font-size="120.8254">dWell</text>
			<text transform="matrix(1 0 0 1 1240.8706 720.4058)" fill="#12BCCF" font-family="'PoiretOne-Regular'" font-size="120.8254">Well</text>
		</g>
	</g>
</g>
</svg>
