<?xml version="1.0" encoding="utf-8"?>
<!-- Generator: Adobe Illustrator 15.0.0, SVG Export Plug-In . SVG Version: 6.00 Build 0)  -->
<!DOCTYPE svg PUBLIC "-//W3C//DTD SVG 1.1//EN" "http://www.w3.org/Graphics/SVG/1.1/DTD/svg11.dtd">
<svg version="1.1" id="Layer_1" xmlns="http://www.w3.org/2000/svg" xmlns:xlink="http://www.w3.org/1999/xlink" x="0px" y="0px"
	 width="494.3px" height="715.765px" viewBox="1127.527 127.048 494.3 715.765"
	 enable-background="new 1127.527 127.048 494.3 715.765" xml:space="preserve">
<g id="Layer_14">
</g>
<g id="Layer_10">
	<path fill="#9CFFAF" d="M1621.827,595.659c0,136.504-110.655,247.154-247.139,247.154c-136.519,0-247.161-110.647-247.161-247.154
		c0-136.495,110.644-247.146,247.161-247.146C1511.167,348.517,1621.827,459.164,1621.827,595.659z"/>
</g>
<g id="Layer_7">
	<polygon fill="#5F6472" points="1512.539,441.73 1445.641,441.73 1445.641,325.914 1512.539,272.951 	"/>
	<rect x="1517.901" y="245.733" fill="#A4A4A5" width="62.523" height="355.081"/>
	<polygon fill="#858B99" points="1510.883,446.042 1477.439,446.042 1477.098,304.01 1510.883,277.263 	"/>
	<rect x="1567.377" y="205.815" fill="#A4A4A5" width="8.258" height="47.362"/>
	<rect x="1553.604" y="247.664" fill="#D6D6D6" width="24.931" height="355.083"/>
</g>
<g id="Layer_11">
	<rect x="1522.137" y="252.249" fill="#F9F4BD" width="53.498" height="12.351"/>
	<rect x="1522.137" y="362.663" fill="#F9F4BD" width="53.498" height="12.346"/>
	<rect x="1522.137" y="272.951" fill="#F9F4BD" width="53.498" height="12.351"/>
	<rect x="1522.137" y="295.864" fill="#F9F4BD" width="53.498" height="12.346"/>
	<rect x="1522.137" y="317.969" fill="#F9F4BD" width="53.498" height="12.346"/>
	<rect x="1522.137" y="340.69" fill="#F9F4BD" width="53.498" height="12.35"/>
	<rect x="1522.137" y="384.659" fill="#F9F4BD" width="53.498" height="12.345"/>
	<rect x="1522.137" y="495.072" fill="#F9F4BD" width="53.498" height="12.349"/>
	<rect x="1522.137" y="405.365" fill="#F9F4BD" width="53.498" height="12.345"/>
	<rect x="1522.137" y="428.275" fill="#F9F4BD" width="53.498" height="12.346"/>
	<rect x="1522.137" y="450.374" fill="#F9F4BD" width="53.498" height="12.35"/>
	<rect x="1522.137" y="473.098" fill="#F9F4BD" width="53.498" height="12.348"/>
	<rect x="1522.137" y="516.968" fill="#F9F4BD" width="53.498" height="12.35"/>
</g>
<g id="Layer_9">
	<rect x="1449.736" y="339.316" fill="#EAE58F" width="10.633" height="10.631"/>
	<rect x="1465.674" y="339.316" fill="#EAE58F" width="10.627" height="10.631"/>
	<rect x="1497.807" y="339.316" fill="#F9F4BD" width="10.637" height="10.631"/>
	<rect x="1481.201" y="339.316" fill="#F9F4BD" width="10.627" height="10.631"/>
	<rect x="1449.736" y="357.34" fill="#EAE58F" width="10.633" height="10.632"/>
	<rect x="1465.674" y="357.34" fill="#EAE58F" width="10.627" height="10.632"/>
	<rect x="1497.807" y="357.34" fill="#F9F4BD" width="10.637" height="10.632"/>
	<rect x="1481.201" y="357.34" fill="#F9F4BD" width="10.627" height="10.632"/>
	<rect x="1449.736" y="375.846" fill="#EAE58F" width="10.633" height="10.631"/>
	<rect x="1465.674" y="375.846" fill="#EAE58F" width="10.627" height="10.631"/>
	<rect x="1497.807" y="375.846" fill="#F9F4BD" width="10.637" height="10.631"/>
	<rect x="1481.201" y="375.846" fill="#F9F4BD" width="10.627" height="10.631"/>
	<rect x="1449.736" y="393.521" fill="#EAE58F" width="10.633" height="10.632"/>
	<rect x="1465.674" y="393.521" fill="#EAE58F" width="10.627" height="10.632"/>
	<rect x="1497.807" y="393.521" fill="#F9F4BD" width="10.637" height="10.632"/>
	<rect x="1481.201" y="393.521" fill="#F9F4BD" width="10.627" height="10.632"/>
	<rect x="1449.736" y="411.727" fill="#EAE58F" width="10.633" height="10.632"/>
	<rect x="1465.674" y="411.727" fill="#EAE58F" width="10.627" height="10.632"/>
	<rect x="1497.807" y="411.727" fill="#F9F4BD" width="10.637" height="10.632"/>
	<rect x="1481.201" y="411.727" fill="#F9F4BD" width="10.627" height="10.632"/>
	<rect x="1465.13" y="322.487" fill="#EAE58F" width="10.63" height="10.631"/>
	<rect x="1497.264" y="322.487" fill="#F9F4BD" width="10.638" height="10.631"/>
	<rect x="1480.655" y="322.487" fill="#F9F4BD" width="10.625" height="10.631"/>
	<rect x="1496.974" y="306.496" fill="#F9F4BD" width="10.634" height="10.632"/>
	<rect x="1480.362" y="306.496" fill="#F9F4BD" width="10.634" height="10.632"/>
	<rect x="1496.974" y="291.406" fill="#F9F4BD" width="10.634" height="10.632"/>
	<rect x="1497.807" y="429.133" fill="#F9F4BD" width="10.637" height="10.631"/>
</g>
<g id="Layer_8">
	<polygon fill="#F9EADE" points="1414.35,127.048 1395.811,150.666 1389.191,405.526 1439.941,405.526 1432.219,150.666 	"/>
</g>
<g id="Layer_4">
	<rect x="1310.307" y="179.7" fill="#555760" width="75.762" height="250.827"/>
</g>
<g id="Layer_6">
</g>
<g id="Layer_5">
	<rect x="1322.062" y="195.523" fill="#EAE58F" width="17.652" height="17.651"/>
	<rect x="1357.37" y="195.523" fill="#EAE58F" width="17.646" height="17.651"/>
	<rect x="1322.067" y="222.003" fill="#EAE58F" width="17.656" height="17.654"/>
	<rect x="1357.37" y="222.003" fill="#EAE58F" width="17.654" height="17.654"/>
	<rect x="1321.714" y="249.593" fill="#EAE58F" width="17.653" height="17.654"/>
	<rect x="1357.013" y="249.593" fill="#EAE58F" width="17.651" height="17.654"/>
	<rect x="1321.714" y="277.263" fill="#EAE58F" width="17.653" height="17.654"/>
	<rect x="1357.013" y="277.263" fill="#EAE58F" width="17.651" height="17.654"/>
	<rect x="1321.714" y="306.489" fill="#EAE58F" width="17.653" height="17.653"/>
	<rect x="1357.013" y="306.489" fill="#EAE58F" width="17.651" height="17.653"/>
</g>
<g id="Layer_3">
	<rect x="1235.644" y="256.941" fill="#797E8E" width="19.86" height="67.669"/>
	<polyline fill="#EBB279" points="1220.563,458.362 1220.563,339.307 1375.324,339.307 1375.324,389.016 	"/>
	<polygon fill="#F44545" points="1297.943,265.035 1172.751,339.307 1422.84,339.307 	"/>
	<path fill="#E6FFFA" d="M1250.538,240.77c2.743,0,4.967,2.222,4.967,4.964c0,2.741-2.224,4.965-4.967,4.965
		c-2.739,0-4.964-2.224-4.964-4.965C1245.574,242.992,1247.797,240.77,1250.538,240.77z"/>
	<circle fill="#D7FFF7" cx="1267.546" cy="235.525" r="7.991"/>
	<circle fill="#E6FFFA" cx="1288.211" cy="224.228" r="12.672"/>
	<circle fill="#E6FFFA" cx="1317.241" cy="210.988" r="16.357"/>
	<polygon fill="#3057B7" points="1277.204,392.314 1275.359,392.314 1241.162,392.314 1241.162,356.271 1259.187,356.271 
		1277.204,356.271 	"/>
	<polygon fill="#5784DD" points="1258.441,357.34 1276.094,357.34 1276.094,390.629 	"/>
	<polygon fill="#F95F5F" points="1414.35,336.825 1297.799,267.518 1297.799,336.825 	"/>
	<g>
		<path fill="#FCE4D0" stroke="#EBB279" stroke-width="0.1" stroke-miterlimit="10" d="M1339.394,377.589v-1.703
			c0,0,0.981-1.135,1.75-1.135c2.734,0-1.098,0,1.914,0c0,0,1.332,0.344,1.377,1.15c0.055,0.794,0.039,1.688,0.039,1.688"/>
		
			<rect x="1334.188" y="380.188" fill="#FCE4D0" stroke="#EBB279" stroke-width="0.1" stroke-miterlimit="10" width="15.763" height="21.015"/>
		
			<rect x="1333.203" y="377.081" fill="#FCE4D0" stroke="#EBB279" stroke-width="0.1" stroke-miterlimit="10" width="17.472" height="4.261"/>
		
			<line fill="none" stroke="#EBB279" stroke-width="0.1" stroke-miterlimit="10" x1="1337.042" y1="383.684" x2="1337.042" y2="399.116"/>
		
			<line fill="none" stroke="#EBB279" stroke-width="0.1" stroke-miterlimit="10" x1="1343.729" y1="383.684" x2="1343.729" y2="399.116"/>
		
			<line fill="none" stroke="#EBB279" stroke-width="0.1" stroke-miterlimit="10" x1="1347.107" y1="383.684" x2="1347.107" y2="399.116"/>
		
			<line fill="none" stroke="#EBB279" stroke-width="0.1" stroke-miterlimit="10" x1="1340.369" y1="383.684" x2="1340.369" y2="399.112"/>
	</g>
	<path fill="#F7D0AD" d="M1375.317,389.005c114.555,0,207.427,92.87,207.427,207.43c0,114.559-92.872,207.426-207.427,207.426
		c-114.563,0-207.434-92.867-207.434-207.426C1167.883,481.875,1260.753,389.005,1375.317,389.005z"/>
</g>
<g id="Layer_13">
</g>
<g id="Layer_2">
	<circle fill="#12BCCF" cx="1375.324" cy="593.951" r="182.417"/>
</g>
<g id="Layer_12">
	<g enable-background="new    ">
		<path fill="#FFFFFF" d="M1270.938,483.7v90.619h-3.866v-13.17c-2.417,4.431-5.921,7.956-10.512,10.572
			c-4.592,2.617-9.304,3.927-14.137,3.927c-7.975,0-14.762-2.798-20.359-8.397c-5.6-5.598-8.397-12.303-8.397-20.117
			c0-7.812,2.798-14.518,8.397-20.118c5.598-5.598,12.385-8.397,20.359-8.397c4.993,0,9.806,1.329,14.438,3.987
			c4.631,2.658,8.035,6.204,10.21,10.633V483.7H1270.938z M1217.534,547.194c0,6.808,2.416,12.687,7.249,17.641
			c4.833,4.954,10.651,7.431,17.459,7.431c6.807,0,12.688-2.477,17.641-7.431c4.954-4.954,7.431-10.814,7.431-17.58
			s-2.477-12.666-7.431-17.701c-4.953-5.033-10.813-7.552-17.58-7.552c-6.766,0-12.586,2.498-17.459,7.491
			C1219.968,534.488,1217.534,540.388,1217.534,547.194z"/>
		<path fill="#FFFFFF" d="M1320.354,575.89l-39.751-92.19h4.47l35.886,83.007l16.795-39.269l-18.729-43.739h4.35l16.795,39.751
			l17.278-39.751h3.383l-18.849,43.618l17.157,39.751l36.61-83.37h3.262l-40.234,92.19l-19.212-44.222L1320.354,575.89z"/>
		<path fill="#FFFFFF" d="M1421.244,575.769h-1.088c-7.653,0-14.317-2.879-19.996-8.639c-5.679-5.758-8.519-12.464-8.519-20.118
			c0-7.651,2.818-14.276,8.458-19.875c5.637-5.598,12.605-8.397,20.902-8.397c8.296,0,15.425,3.304,21.387,9.908l-37.939,37.456
			c5.235,4.189,10.271,6.283,15.104,6.283s9.161-1.106,12.988-3.323c3.825-2.214,6.987-5.175,9.484-8.881v6.162
			C1436.305,572.628,1429.378,575.769,1421.244,575.769z M1419.975,522.123c-6.404,0-12.083,2.477-17.037,7.431
			c-4.953,4.954-7.431,10.653-7.431,17.097c0,6.445,2.134,12.083,6.404,16.916l35.16-34.918
			C1432.076,524.298,1426.378,522.123,1419.975,522.123z"/>
		<path fill="#FFFFFF" d="M1474.527,572.023v3.383c-5.721,0-10.594-1.913-14.62-5.739c-4.029-3.825-6.041-8.718-6.041-14.68V483.7
			h3.866v71.287c0,4.914,1.631,8.982,4.894,12.203C1465.887,570.413,1469.854,572.023,1474.527,572.023z"/>
		<path fill="#FFFFFF" d="M1504.853,572.023v3.383c-5.721,0-10.594-1.913-14.62-5.739c-4.029-3.825-6.041-8.718-6.041-14.68V483.7
			h3.866v71.287c0,4.914,1.631,8.982,4.894,12.203C1496.213,570.413,1500.18,572.023,1504.853,572.023z"/>
	</g>
	<g enable-background="new    ">
		<path fill="none" stroke="#FFFFFF" stroke-width="0.75" stroke-miterlimit="10" d="M1270.938,483.7v90.619h-3.866v-13.17
			c-2.417,4.431-5.921,7.956-10.512,10.572c-4.592,2.617-9.304,3.927-14.137,3.927c-7.975,0-14.762-2.798-20.359-8.397
			c-5.6-5.598-8.397-12.303-8.397-20.117c0-7.812,2.798-14.518,8.397-20.118c5.598-5.598,12.385-8.397,20.359-8.397
			c4.993,0,9.806,1.329,14.438,3.987c4.631,2.658,8.035,6.204,10.21,10.633V483.7H1270.938z M1217.534,547.194
			c0,6.808,2.416,12.687,7.249,17.641c4.833,4.954,10.651,7.431,17.459,7.431c6.807,0,12.688-2.477,17.641-7.431
			c4.954-4.954,7.431-10.814,7.431-17.58s-2.477-12.666-7.431-17.701c-4.953-5.033-10.813-7.552-17.58-7.552
			c-6.766,0-12.586,2.498-17.459,7.491C1219.968,534.488,1217.534,540.388,1217.534,547.194z"/>
		<path fill="none" stroke="#FFFFFF" stroke-width="0.75" stroke-miterlimit="10" d="M1320.354,575.89l-39.751-92.19h4.47
			l35.886,83.007l16.795-39.269l-18.729-43.739h4.35l16.795,39.751l17.278-39.751h3.383l-18.849,43.618l17.157,39.751l36.61-83.37
			h3.262l-40.234,92.19l-19.212-44.222L1320.354,575.89z"/>
		<path fill="none" stroke="#FFFFFF" stroke-width="0.75" stroke-miterlimit="10" d="M1421.244,575.769h-1.088
			c-7.653,0-14.317-2.879-19.996-8.639c-5.679-5.758-8.519-12.464-8.519-20.118c0-7.651,2.818-14.276,8.458-19.875
			c5.637-5.598,12.605-8.397,20.902-8.397c8.296,0,15.425,3.304,21.387,9.908l-37.939,37.456c5.235,4.189,10.271,6.283,15.104,6.283
			s9.161-1.106,12.988-3.323c3.825-2.214,6.987-5.175,9.484-8.881v6.162C1436.305,572.628,1429.378,575.769,1421.244,575.769z
			 M1419.975,522.123c-6.404,0-12.083,2.477-17.037,7.431c-4.953,4.954-7.431,10.653-7.431,17.097
			c0,6.445,2.134,12.083,6.404,16.916l35.16-34.918C1432.076,524.298,1426.378,522.123,1419.975,522.123z"/>
		<path fill="none" stroke="#FFFFFF" stroke-width="0.75" stroke-miterlimit="10" d="M1474.527,572.023v3.383
			c-5.721,0-10.594-1.913-14.62-5.739c-4.029-3.825-6.041-8.718-6.041-14.68V483.7h3.866v71.287c0,4.914,1.631,8.982,4.894,12.203
			C1465.887,570.413,1469.854,572.023,1474.527,572.023z"/>
		<path fill="none" stroke="#FFFFFF" stroke-width="0.75" stroke-miterlimit="10" d="M1504.853,572.023v3.383
			c-5.721,0-10.594-1.913-14.62-5.739c-4.029-3.825-6.041-8.718-6.041-14.68V483.7h3.866v71.287c0,4.914,1.631,8.982,4.894,12.203
			C1496.213,570.413,1500.18,572.023,1504.853,572.023z"/>
	</g>
	<g enable-background="new    ">
		<path fill="#FFFFFF" d="M1285.979,720.875l-39.751-92.189h4.47l35.886,83.007l16.795-39.268l-18.729-43.739h4.35l16.795,39.752
			l17.278-39.752h3.383l-18.849,43.618l17.157,39.751l36.61-83.369h3.262l-40.234,92.189l-19.212-44.222L1285.979,720.875z"/>
		<path fill="#FFFFFF" d="M1386.869,720.755h-1.088c-7.653,0-14.317-2.879-19.996-8.64c-5.679-5.758-8.519-12.464-8.519-20.117
			c0-7.651,2.818-14.276,8.458-19.876c5.637-5.598,12.605-8.397,20.902-8.397c8.296,0,15.425,3.305,21.387,9.908l-37.939,37.456
			c5.235,4.188,10.271,6.282,15.104,6.282s9.161-1.105,12.988-3.322c3.825-2.215,6.987-5.175,9.484-8.881v6.162
			C1401.93,717.614,1395.003,720.755,1386.869,720.755z M1385.6,667.109c-6.404,0-12.083,2.477-17.037,7.431
			c-4.953,4.954-7.431,10.653-7.431,17.097c0,6.445,2.134,12.082,6.404,16.915l35.16-34.918
			C1397.701,669.284,1392.003,667.109,1385.6,667.109z"/>
		<path fill="#FFFFFF" d="M1440.153,717.009v3.384c-5.721,0-10.594-1.913-14.62-5.739c-4.029-3.825-6.041-8.719-6.041-14.681
			v-71.287h3.866v71.287c0,4.914,1.631,8.982,4.894,12.203C1431.513,715.399,1435.48,717.009,1440.153,717.009z"/>
		<path fill="#FFFFFF" d="M1470.479,717.009v3.384c-5.721,0-10.594-1.913-14.62-5.739c-4.029-3.825-6.041-8.719-6.041-14.681
			v-71.287h3.866v71.287c0,4.914,1.631,8.982,4.894,12.203C1461.839,715.399,1465.806,717.009,1470.479,717.009z"/>
	</g>
	<g enable-background="new    ">
		<path fill="none" stroke="#FFFFFF" stroke-width="0.75" stroke-miterlimit="10" d="M1285.979,720.875l-39.751-92.189h4.47
			l35.886,83.007l16.795-39.268l-18.729-43.739h4.35l16.795,39.752l17.278-39.752h3.383l-18.849,43.618l17.157,39.751l36.61-83.369
			h3.262l-40.234,92.189l-19.212-44.222L1285.979,720.875z"/>
		<path fill="none" stroke="#FFFFFF" stroke-width="0.75" stroke-miterlimit="10" d="M1386.869,720.755h-1.088
			c-7.653,0-14.317-2.879-19.996-8.64c-5.679-5.758-8.519-12.464-8.519-20.117c0-7.651,2.818-14.276,8.458-19.876
			c5.637-5.598,12.605-8.397,20.902-8.397c8.296,0,15.425,3.305,21.387,9.908l-37.939,37.456c5.235,4.188,10.271,6.282,15.104,6.282
			s9.161-1.105,12.988-3.322c3.825-2.215,6.987-5.175,9.484-8.881v6.162C1401.93,717.614,1395.003,720.755,1386.869,720.755z
			 M1385.6,667.109c-6.404,0-12.083,2.477-17.037,7.431c-4.953,4.954-7.431,10.653-7.431,17.097c0,6.445,2.134,12.082,6.404,16.915
			l35.16-34.918C1397.701,669.284,1392.003,667.109,1385.6,667.109z"/>
		<path fill="none" stroke="#FFFFFF" stroke-width="0.75" stroke-miterlimit="10" d="M1440.153,717.009v3.384
			c-5.721,0-10.594-1.913-14.62-5.739c-4.029-3.825-6.041-8.719-6.041-14.681v-71.287h3.866v71.287
			c0,4.914,1.631,8.982,4.894,12.203C1431.513,715.399,1435.48,717.009,1440.153,717.009z"/>
		<path fill="none" stroke="#FFFFFF" stroke-width="0.75" stroke-miterlimit="10" d="M1470.479,717.009v3.384
			c-5.721,0-10.594-1.913-14.62-5.739c-4.029-3.825-6.041-8.719-6.041-14.681v-71.287h3.866v71.287
			c0,4.914,1.631,8.982,4.894,12.203C1461.839,715.399,1465.806,717.009,1470.479,717.009z"/>
	</g>
	<g>
		<g enable-background="new    ">
			<path fill="#12BCCF" d="M1267.999,484.801v90.619h-3.866v-13.17c-2.417,4.431-5.921,7.956-10.512,10.572
				c-4.592,2.617-9.304,3.927-14.137,3.927c-7.975,0-14.762-2.798-20.359-8.397c-5.6-5.598-8.397-12.303-8.397-20.117
				c0-7.812,2.798-14.518,8.397-20.118c5.598-5.598,12.385-8.397,20.359-8.397c4.993,0,9.806,1.329,14.438,3.987
				c4.631,2.658,8.035,6.204,10.21,10.633v-49.539H1267.999z M1214.594,548.294c0,6.808,2.416,12.687,7.249,17.641
				c4.833,4.954,10.651,7.431,17.459,7.431c6.807,0,12.688-2.477,17.641-7.431c4.954-4.954,7.431-10.814,7.431-17.58
				s-2.477-12.666-7.431-17.701c-4.953-5.033-10.813-7.552-17.58-7.552c-6.766,0-12.586,2.498-17.459,7.491
				C1217.029,535.589,1214.594,541.489,1214.594,548.294z"/>
			<path fill="#12BCCF" d="M1317.415,576.991l-39.751-92.19h4.47l35.886,83.007l16.795-39.269l-18.729-43.739h4.35l16.795,39.751
				l17.278-39.751h3.383l-18.849,43.618l17.157,39.751l36.61-83.37h3.262l-40.234,92.19l-19.212-44.222L1317.415,576.991z"/>
			<path fill="#12BCCF" d="M1418.304,576.87h-1.088c-7.653,0-14.317-2.879-19.996-8.639c-5.679-5.758-8.519-12.464-8.519-20.118
				c0-7.651,2.818-14.276,8.458-19.875c5.637-5.598,12.605-8.397,20.902-8.397c8.296,0,15.425,3.304,21.387,9.908l-37.939,37.456
				c5.235,4.189,10.271,6.283,15.104,6.283s9.161-1.106,12.988-3.323c3.825-2.214,6.987-5.175,9.484-8.881v6.162
				C1433.366,573.729,1426.439,576.87,1418.304,576.87z M1417.036,523.223c-6.404,0-12.083,2.477-17.037,7.431
				c-4.953,4.954-7.431,10.653-7.431,17.097c0,6.445,2.134,12.083,6.404,16.916l35.16-34.918
				C1429.136,525.398,1423.439,523.223,1417.036,523.223z"/>
			<path fill="#12BCCF" d="M1471.587,573.124v3.383c-5.721,0-10.594-1.913-14.62-5.739c-4.029-3.825-6.041-8.718-6.041-14.68
				v-71.287h3.866v71.287c0,4.914,1.631,8.982,4.894,12.203C1462.948,571.514,1466.915,573.124,1471.587,573.124z"/>
			<path fill="#12BCCF" d="M1501.914,573.124v3.383c-5.721,0-10.594-1.913-14.62-5.739c-4.029-3.825-6.041-8.718-6.041-14.68
				v-71.287h3.866v71.287c0,4.914,1.631,8.982,4.894,12.203C1493.274,571.514,1497.241,573.124,1501.914,573.124z"/>
		</g>
		<g enable-background="new    ">
			<path fill="#12BCCF" d="M1283.039,721.976l-39.751-92.189h4.47l35.886,83.007l16.795-39.268l-18.729-43.739h4.35l16.795,39.752
				l17.278-39.752h3.383l-18.849,43.618l17.157,39.751l36.61-83.369h3.262l-40.234,92.189l-19.212-44.222L1283.039,721.976z"/>
			<path fill="#12BCCF" d="M1383.928,721.856h-1.088c-7.653,0-14.317-2.879-19.996-8.64c-5.679-5.758-8.519-12.464-8.519-20.117
				c0-7.651,2.818-14.276,8.458-19.876c5.637-5.598,12.605-8.397,20.902-8.397c8.296,0,15.425,3.305,21.387,9.908l-37.939,37.456
				c5.235,4.188,10.271,6.282,15.104,6.282s9.161-1.105,12.988-3.322c3.825-2.215,6.987-5.175,9.484-8.881v6.162
				C1398.99,718.714,1392.063,721.856,1383.928,721.856z M1382.66,668.209c-6.404,0-12.083,2.477-17.037,7.431
				c-4.953,4.954-7.431,10.653-7.431,17.097c0,6.445,2.134,12.082,6.404,16.915l35.16-34.918
				C1394.76,670.384,1389.063,668.209,1382.66,668.209z"/>
			<path fill="#12BCCF" d="M1437.212,718.11v3.384c-5.721,0-10.594-1.913-14.62-5.739c-4.029-3.825-6.041-8.719-6.041-14.681
				v-71.287h3.866v71.287c0,4.914,1.631,8.982,4.894,12.203C1428.573,716.5,1432.54,718.11,1437.212,718.11z"/>
			<path fill="#12BCCF" d="M1467.539,718.11v3.384c-5.721,0-10.594-1.913-14.62-5.739c-4.029-3.825-6.041-8.719-6.041-14.681
				v-71.287h3.866v71.287c0,4.914,1.631,8.982,4.894,12.203C1458.899,716.5,1462.866,718.11,1467.539,718.11z"/>
		</g>
	</g>
</g>
</svg>
